<?xml version="1.0" standalone="no"?><!DOCTYPE svg PUBLIC "-//W3C//DTD SVG 1.1//EN" "http://www.w3.org/Graphics/SVG/1.1/DTD/svg11.dtd"><svg t="1626163803900" class="icon" viewBox="0 0 1024 1024" version="1.1" xmlns="http://www.w3.org/2000/svg" p-id="1187" xmlns:xlink="http://www.w3.org/1999/xlink" width="200" height="200"><defs><style type="text/css"></style></defs><path d="M512 0a512 512 0 1 0 512 512A512 512 0 0 0 512 0z m0 938.666667a426.666667 426.666667 0 1 1 426.666667-426.666667 426.666667 426.666667 0 0 1-426.666667 426.666667z" p-id="1188"></path><path d="M725.333333 462.933333h-162.56V298.666667a42.666667 42.666667 0 1 0-85.333333 0v162.986666H300.8a42.666667 42.666667 0 1 0 0 85.333334h176.64V725.333333a42.666667 42.666667 0 0 0 85.333333 0v-177.066666H725.333333a42.666667 42.666667 0 0 0 0-85.333334z" p-id="1189"></path></svg>